# xmcd
# 
# Track frame offsets:
#     150
#     17652
#     37582
#     56337
#     73947
#     89822
#     109552
#     129150
#     144967
#     166165
#     188417
#     206680
#     225390
#     246790
#     263562
#     285627
#     307615
#     326190
# 
# Disc length: 4624
# 
# Revision: 19
# Processed by: cddbd v1.5.2PL0 Copyright (c) Steve Scherf et al.
# Submitted via: fre:ac v1.0.17
# 
DISCID=e4120e12
DTITLE=Barbra Streisand - The Essential Barbra Streisand [Disc 2]
DYEAR=2002
DGENRE=Easy Listening
TTITLE0=Woman In Love
TTITLE1=Guilty (with Barry Gibb)
TTITLE2=Comin' In And Out Of Your Life
TTITLE3=Memory
TTITLE4=Papa, Can You Hear Me?
TTITLE5=A Piece Of Sky
TTITLE6=Putting It Together
TTITLE7=Not While I'm Around
TTITLE8=Send In The Clowns
TTITLE9=Somewhere
TTITLE10=All I Ask Of You
TTITLE11=Children Will Listen
TTITLE12=As If We Never Said Goodbye
TTITLE13=I Finally Found Someone (with Bryan Adams)
TTITLE14=Tell Him (with Celine Dion)
TTITLE15=I've Dreamed Of You
TTITLE16=Someday My Prince Will Come
TTITLE17=You'll Never Walk Alone
EXTD=Location:  - UPC: 5099750625729 - Catalogue number: 506257 2 - Label: Columbia Records - ASIN: B000
EXTT0=
EXTT1=
EXTT2=
EXTT3=
EXTT4=
EXTT5=
EXTT6=
EXTT7=
EXTT8=
EXTT9=
EXTT10=
EXTT11=
EXTT12=
EXTT13=
EXTT14=
EXTT15=
EXTT16=
EXTT17=Previously unreleased
PLAYORDER=
